# xmcd
#
# Track frame offsets:
#	150
#	14395
#	36970
#	52444
#	65333
#	76760
#	85994
#	98995
#	116810
#	133483
#	152359
#	165409
#	186560
#	197883
#	216744
#	233951
#	251274
#	268611
#	289894
#
# Disc length: 4050 seconds
#
# Revision: 3
# Processed by: cddbd v1.5.2PL0 Copyright (c) Steve Scherf et al.
# Submitted via: audiograbber 1.83.01
#
DISCID=210fd013
DTITLE=Various Artist - Saturday Night Country - 15th Anniversary Edition [Disc 2]
DYEAR=2008
DGENRE=Country
TTITLE0=Crakajak - Country Born
TTITLE1=Iris DeMent - Our Town
TTITLE2=Lee Kernaghan with Catherine Britt - Love Hurts
TTITLE3=Ralph Stanley - Man Of Constant Sorrow
TTITLE4=Clelia Adams (with Bill Chambers) - If I Could Win Your Love
TTITLE5=Bob Howe - Diamondtina Yodel
TTITLE6=Reg Lindsay - July, You're A Woman
TTITLE7=Anne Kirkpatrick - Sundown
TTITLE8=Slim Dusty featuring Kasey Chambers - Matilda No More
TTITLE9=Tania Kernaghan - Here's To Us
TTITLE10=John Beland - Anyone But You
TTITLE11=Gary Shearston - Shopping On A Saturday
TTITLE12=Tom Curtain - Drink Drovin
TTITLE13=Fred Eaglesmith - Dancin' On The Bar
TTITLE14=Audrey Auld with Keiran Kane - Harmony
TTITLE15=Carter and Carter - Last Of The Riverboats
TTITLE16=Lucky Oceans And The White Pointers - Look At The Moon
TTITLE17=Dianna Corcoran - Let It Rain
TTITLE18=Lee Kernaghan - Wild Side Of Life
EXTD=
EXTT0=
EXTT1=
EXTT2=
EXTT3=
EXTT4=
EXTT5=
EXTT6=
EXTT7=
EXTT8=
EXTT9=
EXTT10=
EXTT11=
EXTT12=
EXTT13=
EXTT14=
EXTT15=
EXTT16=
EXTT17=
EXTT18=
PLAYORDER=
